<svg xmlns="http://www.w3.org/2000/svg" viewBox="0.020000001415610313 4.25 258.7200012207031 47.36000061035156" data-asc="0.9765625" width="258.7200012207031" height="47.36000061035156"><defs/><g fill="#ffffff"><g transform="translate(0, 0)"><path d="M23.78 22.68L3.88 33.35L23.78 43.53L22.34 46.48L0.02 34.99L0.02 31.62L22.31 19.68L23.78 22.68ZM46.48 4.25L50.12 4.25L33.45 51.61L29.91 51.61L46.48 4.25ZM74.83 45.58Q69.68 49.32 64.36 49.32Q58.47 49.32 56.52 45.00Q55.40 42.55 55.26 39.83Q55.13 37.11 55.13 35.05Q55.13 32.98 55.16 30.88Q55.20 28.78 55.47 27.00Q55.74 25.22 56.31 23.79Q56.88 22.36 57.96 21.36Q60.18 19.29 65.30 19.29Q70.41 19.29 74.54 21.07L74.54 7.28L78.59 6.88L78.59 35.47Q78.59 43.90 79.05 48.63L75.42 48.93L74.83 45.58M74.54 24.41Q70.14 22.95 66.04 22.95Q63.06 22.95 62.11 23.44Q61.16 23.93 60.66 24.71Q60.16 25.49 59.84 26.86Q59.28 29.42 59.28 35.30L59.28 35.84Q59.28 41.33 60.47 43.43Q61.77 45.65 65.28 45.65L65.65 45.65Q69.02 45.65 72.83 43.51Q73.88 42.92 74.63 42.33L74.63 42.29Q74.51 40.01 74.51 35.28L74.54 24.41ZM112.01 47.29Q106.96 49.32 100.85 49.32Q97.31 49.32 94.85 48.58Q90.92 47.46 89.62 43.95Q88.43 40.65 88.43 34.18L88.43 32.93Q88.43 25.20 91.65 22.07Q94.56 19.29 101.34 19.29Q107.96 19.29 110.38 22.56Q111.55 24.15 111.93 26.40Q112.30 28.66 112.30 30.71Q112.30 33.91 112.16 35.67Q108.72 35.82 105.98 35.82Q105.98 35.82 102.05 35.82Q95.90 35.82 92.58 35.28Q92.58 40.89 93.99 43.12Q95.73 45.83 100.90 45.83Q106.08 45.83 110.82 43.80L112.01 47.29M108.18 32.42L108.18 30.08Q108.18 26.25 106.69 24.61Q105.03 22.78 100.95 22.78Q96.07 22.78 94.29 24.90Q92.58 26.93 92.58 32.42L108.18 32.42ZM119.12 19.78L123.49 19.78L131.10 43.48L131.84 45.90L132.52 43.48L139.79 19.78L144.21 19.78L134.40 48.83L129.08 48.83L119.12 19.78ZM155.08 11.47L161.45 11.47L169.95 39.06L171.39 45.02L172.78 39.04L180.98 11.47L187.06 11.47L193.09 48.83L188.94 48.83L184.40 20.61L183.72 14.01L182.23 20.65L173.80 48.80L168.99 48.80L160.21 20.51L158.47 14.01L157.64 20.56L153.52 48.83L149.32 48.83L155.08 11.47ZM224.51 47.29Q219.46 49.32 213.35 49.32Q209.81 49.32 207.35 48.58Q203.42 47.46 202.12 43.95Q200.93 40.65 200.93 34.18L200.93 32.93Q200.93 25.20 204.15 22.07Q207.06 19.29 213.84 19.29Q220.46 19.29 222.88 22.56Q224.05 24.15 224.43 26.40Q224.80 28.66 224.80 30.71Q224.80 33.91 224.66 35.67Q221.22 35.82 218.48 35.82Q218.48 35.82 214.55 35.82Q208.40 35.82 205.08 35.28Q205.08 40.89 206.49 43.12Q208.23 45.83 213.40 45.83Q218.58 45.83 223.32 43.80L224.51 47.29M220.68 32.42L220.68 30.08Q220.68 26.25 219.19 24.61Q217.53 22.78 213.45 22.78Q208.57 22.78 206.79 24.90Q205.08 26.93 205.08 32.42L220.68 32.42ZM234.99 43.48L254.88 32.81L234.99 22.63L236.43 19.68L258.74 31.18L258.74 34.55L236.45 46.48L234.99 43.48Z"/></g></g></svg>